<?xml version="1.0" encoding="UTF-8" standalone="no"?>
<!-- Uploaded to: SVG Repo, www.svgrepo.com, Generator: SVG Repo Mixer Tools -->

<svg
   fill="#000000"
   width="128"
   height="128"
   viewBox="0 0 3.84 3.84"
   version="1.1"
   id="svg4"
   sodipodi:docname="exit-svgrepo-com.svg"
   inkscape:version="1.2.2 (b0a8486541, 2022-12-01)"
   xmlns:inkscape="http://www.inkscape.org/namespaces/inkscape"
   xmlns:sodipodi="http://sodipodi.sourceforge.net/DTD/sodipodi-0.dtd"
   xmlns="http://www.w3.org/2000/svg"
   xmlns:svg="http://www.w3.org/2000/svg">
  <defs
     id="defs8" />
  <sodipodi:namedview
     id="namedview6"
     pagecolor="#ffffff"
     bordercolor="#111111"
     borderopacity="1"
     inkscape:showpageshadow="0"
     inkscape:pageopacity="0"
     inkscape:pagecheckerboard="1"
     inkscape:deskcolor="#d1d1d1"
     showgrid="false"
     inkscape:zoom="3.345"
     inkscape:cx="86.995516"
     inkscape:cy="60.986547"
     inkscape:window-width="1600"
     inkscape:window-height="835"
     inkscape:window-x="0"
     inkscape:window-y="0"
     inkscape:window-maximized="1"
     inkscape:current-layer="svg4" />
  <path
     d="M 0.43924311,1.92 A 0.18509461,0.18509461 0 0 0 0.62433774,2.1050946 H 2.0292058 L 1.6034882,2.5289613 a 0.18509461,0.18509461 0 0 0 0,0.2628343 0.18509461,0.18509461 0 0 0 0.2628344,0 L 2.606701,2.0514172 a 0.18509461,0.18509461 0 0 0 0.03887,-0.061081 0.18509461,0.18509461 0 0 0 0,-0.140672 0.18509461,0.18509461 0 0 0 -0.03887,-0.061081 L 1.8663226,1.0482044 A 0.18585195,0.18585195 0 1 0 1.6034882,1.3110387 L 2.0292058,1.7349054 H 0.62433774 A 0.18509461,0.18509461 0 0 0 0.43924311,1.92 Z M 2.8454731,0.06905389 H 0.99452694 A 0.55528383,0.55528383 0 0 0 0.43924311,0.62433771 V 1.1796216 a 0.18509461,0.18509461 0 0 0 0.37018919,0 V 0.62433771 A 0.18509461,0.18509461 0 0 1 0.99452694,0.43924308 H 2.8454731 A 0.18509461,0.18509461 0 0 1 3.0305677,0.62433771 V 3.2156623 A 0.18509461,0.18509461 0 0 1 2.8454731,3.4007569 H 0.99452694 A 0.18509461,0.18509461 0 0 1 0.8094323,3.2156623 V 2.6603784 a 0.18509461,0.18509461 0 0 0 -0.37018919,0 V 3.2156623 A 0.55528383,0.55528383 0 0 0 0.99452694,3.7709461 H 2.8454731 A 0.55528383,0.55528383 0 0 0 3.4007569,3.2156623 V 0.62433771 A 0.55528383,0.55528383 0 0 0 2.8454731,0.06905389 Z"
     id="path2"
     style="fill:#a5efac;fill-opacity:1;stroke-width:0.185093;stroke-dasharray:none" />
</svg>
